<svg id="svg" version="1.1" xmlns="http://www.w3.org/2000/svg" xmlns:xlink="http://www.w3.org/1999/xlink" width="400" height="565.1006711409395" viewBox="0, 0, 400,565.1006711409395"><g id="svgg"><path id="path0" d="M116.200 228.691 C 115.540 228.785,114.829 229.028,114.620 229.231 C 114.411 229.434,113.914 229.600,113.515 229.600 C 113.116 229.600,112.477 229.765,112.095 229.967 C 111.713 230.169,110.410 230.824,109.200 231.422 C 103.843 234.071,100.000 237.928,100.000 240.653 L 100.000 242.479 101.500 241.581 C 102.325 241.086,103.569 240.340,104.265 239.922 C 107.558 237.944,106.188 241.864,102.760 244.227 C 98.630 247.075,98.563 249.084,102.680 246.601 C 105.597 244.842,106.000 244.839,106.000 246.578 C 106.000 247.881,105.831 248.051,102.900 249.691 L 99.800 251.426 99.678 253.313 C 99.528 255.632,99.642 255.635,102.714 253.400 C 105.768 251.177,106.000 251.173,106.000 253.334 C 106.000 255.160,105.657 255.498,100.700 258.543 C 99.465 259.301,98.924 263.231,100.152 262.520 C 101.699 261.624,107.307 255.841,107.821 254.613 C 108.463 253.076,108.632 253.004,110.195 253.598 C 111.140 253.958,111.282 253.885,111.641 252.856 C 111.859 252.228,112.435 251.524,112.919 251.292 C 113.404 251.059,115.240 250.179,117.000 249.335 C 118.760 248.491,120.260 247.665,120.333 247.500 C 120.407 247.335,120.792 247.200,121.191 247.200 C 121.856 247.200,122.400 246.466,122.400 245.567 C 122.400 244.802,121.239 245.279,116.898 247.831 C 114.436 249.277,112.237 250.347,112.011 250.207 C 110.937 249.543,112.034 246.000,113.313 246.000 C 113.451 246.000,115.127 245.100,117.039 244.000 C 118.951 242.900,120.669 242.000,120.857 242.000 C 121.046 242.000,121.200 241.820,121.200 241.600 C 121.200 241.380,121.470 241.200,121.800 241.200 C 122.130 241.200,122.400 241.020,122.400 240.800 C 122.400 240.219,122.476 240.188,117.433 242.800 C 111.693 245.773,111.600 245.779,111.600 243.189 L 111.600 241.178 115.024 239.589 C 116.907 238.715,118.617 238.000,118.824 238.000 C 119.031 238.000,119.200 237.854,119.200 237.675 C 119.200 237.496,119.830 237.102,120.600 236.800 C 121.663 236.383,122.000 236.018,122.000 235.283 C 122.000 234.517,121.854 234.375,121.300 234.605 C 120.915 234.765,119.880 235.080,119.000 235.306 C 118.120 235.532,117.220 235.855,117.000 236.023 C 116.780 236.191,115.923 236.455,115.096 236.610 C 114.268 236.764,113.497 237.042,113.383 237.228 C 112.955 237.919,112.000 237.075,112.000 236.006 C 112.000 235.122,112.264 234.798,113.300 234.408 C 114.671 233.892,115.815 233.441,117.300 232.829 C 117.795 232.625,118.695 232.310,119.300 232.129 C 119.905 231.948,120.400 231.665,120.400 231.500 C 120.400 231.335,120.400 230.570,120.400 229.800 C 120.400 228.291,119.912 228.162,116.200 228.691 M119.800 250.840 C 112.335 253.812,112.480 255.200,120.256 255.200 L 122.400 255.200 122.400 252.600 C 122.400 251.170,122.265 250.010,122.100 250.022 C 121.935 250.034,120.900 250.402,119.800 250.840 M108.425 255.553 C 107.681 256.943,107.386 263.725,108.046 264.272 C 109.739 265.676,127.937 265.955,135.000 264.685 C 137.670 264.205,137.799 264.131,137.775 263.091 C 137.597 255.341,137.616 255.508,136.978 255.753 C 132.138 257.610,118.855 257.212,109.735 254.936 C 109.127 254.784,108.739 254.967,108.425 255.553 M102.311 264.573 C 100.064 266.935,99.619 267.628,99.611 268.788 L 99.600 270.177 102.176 267.624 C 104.184 265.633,104.810 264.727,105.015 263.509 C 105.377 261.367,105.349 261.378,102.311 264.573 M110.600 267.137 C 106.450 267.527,105.906 268.800,107.415 274.593 C 108.454 278.581,107.250 278.600,120.030 274.390 C 127.581 271.903,129.148 271.747,132.400 273.160 C 132.950 273.400,134.390 273.858,135.600 274.179 C 136.810 274.501,138.205 274.883,138.700 275.028 C 139.910 275.385,139.950 272.967,138.786 269.856 C 138.007 267.773,137.902 267.672,136.286 267.454 C 133.607 267.092,113.687 266.846,110.600 267.137 M101.899 272.100 L 99.636 274.600 99.618 279.052 L 99.600 283.504 101.300 284.884 C 105.574 288.355,113.716 289.867,118.400 288.060 C 122.606 286.436,122.387 286.852,122.394 280.500 C 122.401 274.703,122.343 274.589,119.919 275.573 C 119.413 275.778,117.920 276.243,116.600 276.606 C 115.280 276.969,113.907 277.419,113.549 277.606 C 113.191 277.793,112.244 278.068,111.445 278.218 C 110.645 278.368,109.893 278.650,109.772 278.845 C 109.651 279.040,109.224 279.200,108.822 279.200 C 108.420 279.200,107.589 279.461,106.974 279.780 C 105.401 280.596,105.200 280.308,105.200 277.235 C 105.200 273.828,104.770 269.600,104.424 269.600 C 104.280 269.600,103.144 270.725,101.899 272.100 M118.200 290.400 C 117.760 290.589,116.354 290.756,115.076 290.772 C 113.636 290.789,112.847 290.952,113.000 291.200 C 113.136 291.420,113.676 291.600,114.200 291.600 C 114.724 291.600,115.251 291.758,115.370 291.952 C 116.231 293.345,122.400 294.089,122.400 292.800 C 122.400 292.178,122.133 292.000,121.200 292.000 C 120.187 292.000,120.000 291.844,120.000 291.000 C 120.000 289.962,119.561 289.815,118.200 290.400 M111.600 294.532 C 111.600 294.965,112.170 295.233,113.500 295.426 C 114.545 295.577,115.585 295.847,115.811 296.026 C 116.462 296.540,122.400 296.976,122.400 296.510 C 122.400 296.289,120.555 295.717,118.300 295.237 C 111.751 293.846,111.600 293.830,111.600 294.532 M109.200 297.538 C 109.200 297.768,109.682 298.191,110.270 298.478 C 112.006 299.324,111.996 300.169,110.254 299.886 C 108.411 299.587,108.385 300.112,110.200 300.973 C 111.689 301.680,111.867 302.268,111.639 305.733 C 111.485 308.077,112.020 308.272,117.514 307.876 C 120.088 307.691,122.274 307.460,122.370 307.363 C 123.006 306.727,121.061 306.212,117.300 306.020 C 113.340 305.817,113.000 305.737,113.000 305.000 C 113.000 304.425,113.309 304.164,114.100 304.073 C 115.408 303.923,115.475 303.614,114.400 302.693 C 112.987 301.483,113.473 301.202,117.100 301.136 C 119.025 301.101,119.970 301.005,119.200 300.924 C 118.430 300.842,117.440 300.606,117.000 300.399 C 116.560 300.191,115.481 299.972,114.603 299.911 C 113.403 299.827,112.971 299.611,112.862 299.040 C 112.728 298.329,112.930 298.295,116.004 298.505 C 117.812 298.629,119.135 298.584,118.945 298.406 C 118.755 298.227,117.340 297.974,115.800 297.842 C 114.260 297.711,112.145 297.495,111.100 297.362 C 109.890 297.207,109.200 297.271,109.200 297.538 M320.218 330.457 C 318.993 331.421,317.860 333.459,318.142 334.192 C 318.651 335.519,325.600 337.256,325.600 336.057 C 325.600 335.806,325.240 335.600,324.800 335.600 C 323.838 335.600,323.712 334.337,324.600 333.600 C 325.741 332.653,325.195 332.338,323.853 333.167 C 321.439 334.659,320.782 334.017,322.781 332.120 L 323.963 331.000 322.608 330.322 C 321.306 329.671,321.211 329.676,320.218 330.457 " stroke="none" fill="#cdcbc8" fill-rule="evenodd"></path><path id="path1" d="M293.400 237.557 L 291.800 237.800 291.682 240.478 L 291.564 243.155 296.682 243.318 C 301.368 243.467,305.905 244.153,306.400 244.786 C 306.510 244.927,307.230 245.352,308.000 245.732 C 308.770 246.112,309.743 246.642,310.161 246.911 C 311.654 247.869,315.532 251.997,316.059 253.188 C 316.354 253.855,316.731 254.400,316.898 254.400 C 317.064 254.400,317.200 254.726,317.200 255.124 C 317.200 255.521,317.464 256.196,317.787 256.624 C 318.110 257.051,318.380 257.805,318.387 258.300 C 318.394 258.795,318.580 259.200,318.800 259.200 C 319.020 259.200,319.200 259.952,319.200 260.872 C 319.200 264.505,319.793 265.200,322.893 265.200 C 325.702 265.200,326.726 264.566,325.653 263.493 C 325.398 263.238,325.200 261.762,325.200 260.120 C 325.200 258.440,325.030 257.200,324.800 257.200 C 324.580 257.200,324.399 256.705,324.398 256.100 C 324.396 255.495,324.126 254.484,323.798 253.854 C 323.469 253.224,323.200 252.369,323.200 251.954 C 323.200 251.539,323.061 251.200,322.891 251.200 C 322.721 251.200,322.226 250.526,321.791 249.701 C 320.796 247.817,315.091 242.000,314.237 242.000 C 313.887 242.000,313.600 241.820,313.600 241.600 C 313.600 241.380,313.407 241.200,313.171 241.200 C 312.936 241.200,312.473 240.930,312.143 240.600 C 311.813 240.270,311.106 240.000,310.571 240.000 C 310.037 240.000,309.600 239.820,309.600 239.600 C 309.600 239.380,309.330 239.200,309.000 239.200 C 308.670 239.200,308.400 239.039,308.400 238.842 C 308.400 238.645,307.725 238.390,306.900 238.275 C 306.075 238.159,304.590 237.878,303.600 237.650 C 301.678 237.207,296.041 237.155,293.400 237.557 M270.958 243.100 C 270.839 243.485,270.581 244.102,270.385 244.472 C 270.189 244.842,269.907 246.327,269.759 247.772 C 269.611 249.217,269.334 250.400,269.145 250.400 C 268.955 250.400,268.800 251.030,268.800 251.800 C 268.800 252.570,268.635 253.200,268.434 253.200 C 268.233 253.200,267.942 254.550,267.787 256.200 C 267.633 257.850,267.347 259.200,267.153 259.200 C 266.959 259.200,266.800 259.819,266.800 260.576 C 266.800 261.333,266.630 262.058,266.423 262.186 C 266.216 262.314,265.923 263.674,265.772 265.209 C 265.620 266.744,265.340 268.000,265.148 268.000 C 264.957 268.000,264.800 268.630,264.800 269.400 C 264.800 270.170,264.635 270.800,264.434 270.800 C 264.233 270.800,263.942 272.150,263.787 273.800 C 263.633 275.450,263.347 276.800,263.153 276.800 C 262.959 276.800,262.800 277.430,262.800 278.200 C 262.800 278.970,262.641 279.600,262.447 279.600 C 262.253 279.600,261.967 280.950,261.813 282.600 C 261.658 284.250,261.444 285.600,261.337 285.600 C 260.460 285.600,260.000 284.174,260.000 281.452 C 260.000 279.799,259.842 278.350,259.649 278.230 C 259.456 278.111,259.167 275.040,259.006 271.407 C 258.846 267.773,258.554 264.800,258.357 264.800 C 258.161 264.800,258.000 264.350,258.000 263.800 C 258.000 262.867,257.867 262.800,256.000 262.800 C 254.146 262.800,254.000 262.871,254.000 263.776 C 254.000 264.313,253.830 264.858,253.623 264.986 C 253.416 265.114,253.125 266.024,252.978 267.009 C 252.830 267.994,252.550 268.800,252.355 268.800 C 252.160 268.800,252.000 269.239,252.000 269.776 C 252.000 270.313,251.830 270.858,251.623 270.986 C 251.416 271.114,251.125 272.024,250.978 273.009 C 250.830 273.994,250.550 274.800,250.355 274.800 C 250.160 274.800,250.000 275.239,250.000 275.776 C 250.000 276.313,249.830 276.858,249.623 276.986 C 249.416 277.114,249.125 278.024,248.978 279.009 C 248.830 279.994,248.550 280.800,248.355 280.800 C 248.160 280.800,248.000 281.239,248.000 281.776 C 248.000 282.313,247.830 282.858,247.623 282.986 C 247.416 283.114,247.125 284.024,246.978 285.009 L 246.709 286.800 218.755 286.800 C 200.385 286.800,190.800 286.937,190.800 287.200 C 190.800 287.461,184.200 287.600,171.800 287.600 C 155.178 287.600,152.800 287.675,152.800 288.200 C 152.800 288.716,154.111 288.800,162.200 288.800 C 167.370 288.800,171.600 288.958,171.600 289.152 C 171.600 289.348,184.756 289.635,201.400 289.801 C 217.957 289.967,231.200 290.255,231.200 290.450 C 231.200 290.642,235.388 290.800,240.506 290.800 L 249.811 290.800 250.506 289.197 C 250.888 288.316,251.200 287.236,251.200 286.797 C 251.200 286.359,251.380 286.000,251.600 286.000 C 251.820 286.000,252.000 285.550,252.000 285.000 C 252.000 284.450,252.157 284.000,252.349 284.000 C 252.541 284.000,252.813 283.280,252.954 282.400 C 253.094 281.520,253.387 280.800,253.605 280.800 C 253.822 280.800,254.000 280.386,254.000 279.880 C 254.000 279.374,254.163 278.789,254.361 278.580 C 254.560 278.371,254.809 277.840,254.915 277.400 C 255.021 276.960,255.128 278.344,255.154 280.476 C 255.179 282.608,255.380 284.464,255.600 284.600 C 255.829 284.742,256.000 286.804,256.000 289.424 C 256.000 291.941,256.153 294.000,256.339 294.000 C 256.526 294.000,256.804 297.285,256.958 301.300 C 257.112 305.315,257.410 308.660,257.619 308.733 C 257.829 308.807,258.000 309.102,258.000 309.391 C 258.000 310.036,258.887 310.400,260.461 310.400 C 261.755 310.400,262.800 309.619,262.800 308.652 C 262.800 308.319,262.965 307.945,263.166 307.821 C 263.367 307.696,263.659 306.243,263.814 304.592 C 263.968 302.940,264.254 301.490,264.448 301.371 C 264.641 301.251,264.800 300.443,264.800 299.576 C 264.800 298.709,264.961 298.000,265.158 298.000 C 265.355 298.000,265.644 296.559,265.800 294.798 C 265.956 293.037,266.245 291.496,266.442 291.374 C 266.639 291.252,266.800 290.443,266.800 289.576 C 266.800 288.709,266.964 288.000,267.164 288.000 C 267.364 288.000,267.656 286.470,267.811 284.600 C 267.967 282.730,268.253 281.200,268.447 281.200 C 268.641 281.200,268.800 280.480,268.800 279.600 C 268.800 278.720,268.964 278.000,269.164 278.000 C 269.364 278.000,269.656 276.470,269.811 274.600 C 269.967 272.730,270.253 271.200,270.447 271.200 C 270.641 271.200,270.800 270.480,270.800 269.600 C 270.800 268.720,270.964 268.000,271.164 268.000 C 271.364 268.000,271.656 266.470,271.811 264.600 C 272.162 260.397,272.800 260.138,272.800 264.200 C 272.800 265.850,272.955 267.200,273.145 267.200 C 273.334 267.200,273.619 270.305,273.778 274.100 C 273.936 277.895,274.231 281.060,274.433 281.133 C 274.635 281.207,274.800 282.885,274.800 284.862 C 274.800 287.444,274.961 288.618,275.371 289.029 C 276.063 289.720,288.981 289.878,289.400 289.200 C 289.556 288.947,294.204 288.800,302.024 288.800 C 310.008 288.800,314.400 288.658,314.400 288.400 C 314.400 288.149,317.000 288.000,321.400 288.000 C 327.356 288.000,328.400 287.910,328.400 287.400 C 328.400 286.895,327.511 286.800,322.800 286.800 C 319.333 286.800,317.200 286.648,317.200 286.400 C 317.200 286.145,313.755 286.000,307.665 286.000 C 302.420 286.000,293.780 285.881,288.465 285.736 L 278.800 285.472 278.800 282.136 C 278.800 280.301,278.639 278.800,278.443 278.800 C 278.247 278.800,277.955 275.650,277.794 271.800 C 277.634 267.950,277.345 264.800,277.151 264.800 C 276.958 264.800,276.800 263.270,276.800 261.400 C 276.800 259.530,276.642 258.000,276.449 258.000 C 276.255 258.000,275.966 254.850,275.806 251.000 C 275.645 247.150,275.353 244.000,275.157 244.000 C 274.961 244.000,274.800 243.640,274.800 243.200 C 274.800 242.092,271.299 242.000,270.958 243.100 M291.867 246.667 C 291.445 247.088,291.556 249.200,292.000 249.200 C 292.220 249.200,292.400 249.470,292.400 249.800 C 292.400 250.286,293.044 250.400,295.800 250.400 C 297.800 250.400,299.200 250.565,299.200 250.800 C 299.200 251.020,299.740 251.200,300.400 251.200 C 301.060 251.200,301.600 251.357,301.600 251.550 C 301.600 251.743,302.164 252.013,302.854 252.151 C 303.543 252.289,304.398 252.735,304.754 253.144 C 305.109 253.552,305.796 254.011,306.280 254.163 C 306.763 254.316,307.267 254.783,307.400 255.200 C 307.533 255.617,307.973 256.064,308.379 256.193 C 308.826 256.335,309.218 256.972,309.376 257.814 C 309.519 258.576,309.808 259.200,310.018 259.200 C 310.228 259.200,310.400 259.470,310.400 259.800 C 310.400 260.130,310.559 260.400,310.752 260.400 C 310.946 260.400,311.261 261.795,311.452 263.500 C 311.810 266.693,312.791 267.769,314.126 266.434 C 314.365 266.195,314.974 266.000,315.480 266.000 C 316.317 266.000,316.400 265.820,316.400 264.000 C 316.400 262.900,316.245 262.000,316.056 262.000 C 315.867 262.000,315.605 260.968,315.475 259.706 C 315.345 258.445,315.050 257.350,314.819 257.273 C 314.589 257.196,314.400 256.698,314.400 256.167 C 314.400 255.635,314.232 255.200,314.027 255.200 C 313.822 255.200,313.546 254.860,313.414 254.445 C 313.100 253.455,309.733 250.000,309.082 250.000 C 308.804 250.000,308.322 249.647,308.011 249.215 C 307.699 248.783,306.942 248.319,306.327 248.184 C 305.712 248.049,305.106 247.772,304.981 247.569 C 304.855 247.366,304.313 247.200,303.776 247.200 C 303.239 247.200,302.800 247.020,302.800 246.800 C 302.800 246.353,292.308 246.225,291.867 246.667 M293.300 254.445 C 293.025 254.728,292.800 255.464,292.800 256.080 L 292.800 257.200 295.600 257.200 C 297.140 257.200,298.400 257.356,298.400 257.548 C 298.400 257.739,299.025 257.997,299.788 258.121 C 301.164 258.344,304.400 261.044,304.400 261.969 C 304.400 262.206,304.569 262.400,304.775 262.400 C 304.982 262.400,305.272 263.210,305.421 264.200 L 305.691 266.000 307.445 266.000 C 309.199 266.000,310.171 263.847,308.800 263.000 C 308.580 262.864,308.400 262.313,308.400 261.776 C 308.400 261.239,308.220 260.800,308.000 260.800 C 307.780 260.800,307.600 260.462,307.600 260.049 C 307.600 259.636,307.330 259.074,307.000 258.800 C 306.670 258.526,306.400 258.093,306.400 257.837 C 306.400 257.582,305.815 257.032,305.100 256.616 C 304.385 256.201,303.710 255.757,303.600 255.630 C 302.392 254.241,294.392 253.320,293.300 254.445 " stroke="none" fill="#218e69" fill-rule="evenodd"></path><path id="path2" d="M180.478 266.467 C 180.572 275.769,180.716 278.573,181.107 278.703 C 181.386 278.796,181.836 279.119,182.107 279.422 C 183.797 281.309,184.622 282.000,185.183 282.000 C 185.412 282.000,185.600 282.180,185.600 282.400 C 185.600 282.620,186.039 282.800,186.576 282.800 C 187.113 282.800,187.664 282.980,187.800 283.200 C 188.388 284.151,195.600 283.337,195.600 282.320 C 195.600 282.144,195.788 282.000,196.017 282.000 C 196.447 282.000,197.277 281.396,198.119 280.472 C 198.384 280.182,199.005 279.565,199.500 279.100 C 199.995 278.636,200.400 277.939,200.400 277.551 C 200.400 277.164,200.580 276.736,200.800 276.600 C 201.020 276.464,201.200 274.754,201.200 272.800 C 201.200 270.846,201.020 269.136,200.800 269.000 C 200.580 268.864,200.400 268.403,200.400 267.976 C 200.400 267.549,200.220 267.200,200.000 267.200 C 199.780 267.200,199.600 267.006,199.600 266.769 C 199.600 265.336,195.408 262.800,193.040 262.800 C 192.248 262.800,191.600 262.620,191.600 262.400 C 191.600 262.174,190.467 262.000,189.000 262.000 C 187.533 262.000,186.400 262.174,186.400 262.400 C 186.400 262.620,186.220 262.800,186.000 262.800 C 185.759 262.800,185.600 261.133,185.600 258.600 L 185.600 254.400 182.978 254.400 L 180.356 254.400 180.478 266.467 M213.200 262.349 C 213.200 262.541,212.516 262.807,211.679 262.941 C 210.772 263.086,209.804 263.591,209.282 264.192 C 208.800 264.746,208.228 265.200,208.010 265.200 C 207.793 265.200,207.502 265.650,207.364 266.200 C 207.226 266.750,206.953 267.200,206.757 267.200 C 206.560 267.200,206.400 267.639,206.400 268.176 C 206.400 268.713,206.220 269.264,206.000 269.400 C 205.759 269.549,205.600 272.335,205.600 276.416 C 205.600 284.109,205.441 283.797,209.232 283.526 L 211.000 283.400 211.200 276.833 C 211.345 272.081,211.538 270.220,211.900 270.099 C 212.175 270.008,212.400 269.709,212.400 269.434 C 212.400 269.160,212.850 268.694,213.400 268.400 C 213.950 268.106,214.400 267.715,214.400 267.532 C 214.400 267.350,215.480 267.200,216.800 267.200 L 219.200 267.200 219.200 264.600 L 219.200 262.000 216.200 262.000 C 214.550 262.000,213.200 262.157,213.200 262.349 M230.000 262.350 C 230.000 262.543,229.466 262.807,228.813 262.938 C 226.614 263.377,223.200 267.588,223.200 269.861 C 223.200 270.378,223.020 270.800,222.800 270.800 C 222.580 270.800,222.400 271.599,222.400 272.576 C 222.400 273.553,222.580 274.464,222.800 274.600 C 223.020 274.736,223.200 275.377,223.200 276.024 C 223.200 276.671,223.380 277.200,223.600 277.200 C 223.820 277.200,224.000 277.489,224.000 277.843 C 224.000 278.764,228.227 282.800,229.191 282.800 C 229.636 282.800,230.000 282.980,230.000 283.200 C 230.000 283.785,236.824 283.701,238.117 283.100 C 238.709 282.825,239.195 282.465,239.197 282.300 C 239.199 282.135,239.388 282.000,239.617 282.000 C 240.409 282.000,243.200 279.277,243.200 278.504 C 243.200 278.227,243.380 278.000,243.600 278.000 C 243.820 278.000,244.000 277.561,244.000 277.024 C 244.000 276.487,244.180 275.936,244.400 275.800 C 244.620 275.664,244.800 274.224,244.800 272.600 C 244.800 270.976,244.620 269.536,244.400 269.400 C 244.180 269.264,244.000 268.901,244.000 268.594 C 244.000 267.148,240.604 263.387,238.900 262.946 C 238.405 262.818,238.000 262.553,238.000 262.357 C 238.000 262.160,236.200 262.000,234.000 262.000 C 231.800 262.000,230.000 262.157,230.000 262.350 M288.800 262.357 C 288.800 262.553,288.336 262.830,287.769 262.972 C 286.421 263.310,283.957 265.796,283.049 267.735 C 282.175 269.599,282.216 277.606,283.100 277.900 C 283.375 277.992,283.600 278.239,283.600 278.450 C 283.600 278.843,284.202 279.666,285.114 280.519 C 286.442 281.762,286.773 282.000,287.171 282.000 C 287.407 282.000,287.601 282.135,287.603 282.300 C 287.605 282.465,288.091 282.825,288.683 283.100 C 289.976 283.701,296.800 283.785,296.800 283.200 C 296.800 282.980,297.160 282.800,297.600 282.800 C 298.040 282.800,298.400 282.620,298.400 282.400 C 298.400 282.180,298.601 282.000,298.847 282.000 C 299.410 282.000,302.400 279.038,302.400 278.480 C 302.400 278.253,302.625 277.992,302.900 277.900 C 303.787 277.606,303.825 269.595,302.949 267.748 C 301.969 265.683,299.436 263.227,297.988 262.938 C 297.334 262.807,296.800 262.543,296.800 262.350 C 296.800 262.157,295.000 262.000,292.800 262.000 C 290.600 262.000,288.800 262.160,288.800 262.357 M239.166 266.247 C 240.069 266.881,240.916 267.805,241.047 268.300 C 241.179 268.795,241.447 269.200,241.643 269.200 C 241.840 269.200,242.000 270.280,242.000 271.600 C 242.000 272.933,241.822 274.000,241.600 274.000 C 241.380 274.000,241.200 274.242,241.200 274.539 C 241.200 275.389,239.963 276.583,237.886 277.737 C 235.958 278.807,234.000 279.142,234.000 278.400 C 234.000 278.180,233.724 278.000,233.386 278.000 C 232.110 278.000,229.242 275.595,229.213 274.500 C 229.206 274.225,229.020 274.000,228.800 274.000 C 228.578 274.000,228.400 272.933,228.400 271.600 C 228.400 270.267,228.578 269.200,228.800 269.200 C 229.020 269.200,229.200 269.018,229.200 268.797 C 229.200 268.170,231.269 266.000,231.866 266.000 C 232.160 266.000,232.400 265.833,232.400 265.628 C 232.400 264.371,237.108 264.801,239.166 266.247 M298.820 266.726 C 299.689 267.595,300.400 268.492,300.400 268.720 C 300.400 268.947,300.601 269.200,300.846 269.282 C 302.520 269.840,300.385 276.328,298.300 277.021 C 297.915 277.149,297.600 277.422,297.600 277.627 C 297.600 277.832,297.251 278.000,296.824 278.000 C 296.397 278.000,295.936 278.180,295.800 278.400 C 295.664 278.620,295.113 278.800,294.576 278.800 C 294.039 278.800,293.600 278.620,293.600 278.400 C 293.600 278.180,293.234 278.000,292.786 278.000 C 291.216 278.000,288.968 276.210,288.576 274.648 C 288.432 274.072,288.153 273.600,287.957 273.600 C 287.492 273.600,287.491 270.115,287.956 269.827 C 288.151 269.706,288.431 269.132,288.577 268.551 C 288.855 267.440,290.252 266.036,291.100 266.013 C 291.375 266.006,291.600 265.833,291.600 265.629 C 291.600 264.022,296.925 264.831,298.820 266.726 M192.975 267.700 C 193.260 267.975,193.923 268.593,194.447 269.072 C 194.971 269.552,195.625 270.219,195.900 270.555 C 196.493 271.280,196.576 274.800,196.000 274.800 C 195.780 274.800,195.600 274.994,195.600 275.231 C 195.600 275.970,193.302 278.000,192.464 278.000 C 192.026 278.000,191.585 278.225,191.486 278.500 C 191.341 278.900,191.135 278.900,190.458 278.500 C 189.992 278.225,189.368 278.000,189.072 278.000 C 188.776 278.000,187.873 277.340,187.067 276.533 L 185.600 275.067 185.600 271.133 L 185.600 267.200 189.029 267.200 C 191.228 267.200,192.643 267.379,192.975 267.700 " stroke="none" fill="#9c1c1c" fill-rule="evenodd"></path><path id="path3" d="M115.900 225.472 C 115.075 225.569,114.400 225.817,114.400 226.024 C 114.400 226.231,113.971 226.400,113.446 226.400 C 112.921 226.400,111.976 226.669,111.346 226.998 C 110.716 227.326,109.861 227.596,109.447 227.598 C 109.033 227.599,108.403 227.934,108.047 228.343 C 107.691 228.751,106.950 229.227,106.400 229.400 C 105.850 229.573,105.109 230.049,104.753 230.457 C 104.397 230.866,103.907 231.200,103.664 231.200 C 103.421 231.200,101.807 232.627,100.077 234.372 L 96.930 237.543 96.666 250.472 C 96.520 257.582,96.401 268.094,96.401 273.831 L 96.400 284.261 94.400 283.852 C 93.300 283.626,92.400 283.298,92.400 283.121 C 92.400 282.944,92.040 282.800,91.600 282.800 C 91.160 282.800,90.800 282.640,90.800 282.445 C 90.800 282.250,90.305 281.988,89.700 281.863 C 87.106 281.327,84.800 280.596,84.800 280.309 C 84.800 280.139,84.361 280.000,83.824 280.000 C 83.287 280.000,82.741 279.828,82.611 279.618 C 82.482 279.409,81.301 279.115,79.988 278.967 C 78.675 278.818,77.600 278.540,77.600 278.348 C 77.600 278.157,76.790 278.000,75.800 278.000 C 74.810 278.000,74.000 277.820,74.000 277.600 C 74.000 277.359,72.333 277.200,69.800 277.200 C 67.267 277.200,65.600 277.359,65.600 277.600 C 65.600 277.820,64.970 278.000,64.200 278.000 C 63.430 278.000,62.800 278.160,62.800 278.357 C 62.800 278.553,62.305 278.835,61.700 278.983 C 57.309 280.060,55.760 285.785,58.895 289.350 C 59.278 289.785,59.692 290.460,59.816 290.850 C 59.940 291.240,60.383 291.667,60.800 291.800 C 61.217 291.933,61.667 292.383,61.800 292.800 C 61.933 293.217,62.383 293.667,62.800 293.800 C 63.217 293.933,63.667 294.383,63.800 294.800 C 63.933 295.217,64.383 295.667,64.800 295.800 C 65.217 295.933,65.667 296.383,65.800 296.800 C 65.933 297.217,66.420 297.679,66.884 297.827 C 68.073 298.204,71.025 301.211,70.525 301.535 C 70.300 301.681,69.991 302.475,69.840 303.300 C 69.688 304.125,69.392 304.800,69.182 304.800 C 68.972 304.800,68.800 305.160,68.800 305.600 C 68.800 306.040,68.643 306.400,68.451 306.400 C 68.259 306.400,67.987 307.120,67.846 308.000 C 67.706 308.880,67.413 309.600,67.195 309.600 C 66.978 309.600,66.800 310.050,66.800 310.600 C 66.800 311.150,66.643 311.600,66.452 311.600 C 66.260 311.600,65.981 312.680,65.832 314.000 C 65.682 315.320,65.389 316.400,65.180 316.400 C 64.971 316.400,64.800 316.904,64.800 317.520 C 64.800 318.136,64.588 318.852,64.328 319.112 C 63.638 319.802,63.611 333.268,64.300 333.499 C 64.575 333.591,64.800 333.922,64.800 334.233 C 64.800 334.981,66.240 336.400,67.000 336.400 C 67.330 336.400,67.600 336.578,67.600 336.795 C 67.600 337.013,68.320 337.306,69.200 337.446 C 70.080 337.587,70.800 337.859,70.800 338.051 C 70.800 338.243,71.970 338.400,73.400 338.400 C 74.830 338.400,76.000 338.243,76.000 338.052 C 76.000 337.860,77.080 337.581,78.400 337.432 C 79.720 337.282,80.800 336.989,80.800 336.780 C 80.800 336.571,81.160 336.400,81.600 336.400 C 82.040 336.400,82.400 336.234,82.400 336.032 C 82.400 335.829,83.570 335.538,85.000 335.385 C 86.430 335.232,87.600 334.948,87.600 334.753 C 87.600 334.559,88.500 334.400,89.600 334.400 C 90.700 334.400,91.600 334.220,91.600 334.000 C 91.600 333.756,93.467 333.600,96.400 333.600 C 99.333 333.600,101.200 333.756,101.200 334.000 C 101.200 334.220,101.920 334.400,102.800 334.400 C 103.680 334.400,104.400 334.565,104.400 334.766 C 104.400 334.967,105.750 335.258,107.400 335.413 C 109.050 335.567,110.400 335.853,110.400 336.047 C 110.400 336.241,111.285 336.400,112.367 336.400 C 113.570 336.400,114.397 336.591,114.498 336.893 C 114.737 337.612,134.060 337.619,134.300 336.900 C 134.392 336.625,134.902 336.400,135.433 336.400 C 135.965 336.400,136.400 336.240,136.400 336.045 C 136.400 335.849,137.030 335.571,137.800 335.426 C 138.570 335.282,139.200 334.992,139.200 334.782 C 139.200 334.572,139.560 334.400,140.000 334.400 C 140.440 334.400,140.801 334.265,140.803 334.100 C 140.805 333.935,141.255 333.592,141.803 333.338 C 142.761 332.893,142.800 332.929,142.800 334.238 C 142.800 335.424,142.929 335.600,143.800 335.600 C 144.350 335.600,144.800 335.780,144.800 336.000 C 144.800 336.220,145.250 336.400,145.800 336.400 C 146.350 336.400,146.800 336.220,146.800 336.000 C 146.800 335.780,147.226 335.600,147.746 335.600 C 148.881 335.600,150.655 334.287,151.003 333.190 C 151.301 332.251,152.223 332.166,153.057 333.000 C 153.387 333.330,154.184 333.600,154.829 333.600 C 155.473 333.600,156.000 333.780,156.000 334.000 C 156.000 334.220,156.270 334.400,156.600 334.400 C 156.930 334.400,157.200 334.243,157.200 334.051 C 157.200 333.859,157.875 333.594,158.700 333.462 C 159.525 333.330,160.762 332.722,161.450 332.111 C 163.211 330.546,164.026 329.911,165.400 329.035 C 166.060 328.615,166.996 327.850,167.481 327.335 C 168.857 325.874,170.138 326.063,169.784 327.675 C 169.630 328.376,169.139 329.245,168.695 329.605 C 168.045 330.131,167.877 330.766,167.843 332.830 L 167.800 335.400 172.173 335.380 C 175.202 335.365,176.596 335.212,176.707 334.880 C 176.795 334.616,177.122 334.400,177.433 334.400 C 177.745 334.400,178.000 334.220,178.000 334.000 C 178.000 333.304,178.698 333.568,178.900 334.339 C 179.216 335.547,184.800 335.934,184.800 334.749 C 184.800 334.557,185.141 334.400,185.557 334.400 C 185.974 334.400,186.418 334.130,186.545 333.800 C 186.671 333.470,187.018 333.200,187.315 333.200 C 187.613 333.200,188.236 332.795,188.700 332.300 C 190.531 330.349,190.625 330.335,192.063 331.815 C 193.419 333.212,199.600 334.019,199.600 332.800 C 199.600 332.580,199.870 332.400,200.200 332.400 C 200.530 332.400,200.800 332.220,200.800 332.000 C 200.800 331.780,201.005 331.600,201.256 331.600 C 201.570 331.600,201.644 332.344,201.493 334.000 L 201.276 336.400 203.438 336.400 C 204.627 336.400,205.600 336.243,205.600 336.051 C 205.600 335.859,206.275 335.593,207.100 335.459 C 208.045 335.306,209.028 334.760,209.756 333.984 C 210.570 333.117,211.038 332.878,211.336 333.176 C 211.569 333.409,212.174 333.600,212.680 333.600 C 213.186 333.600,213.600 333.780,213.600 334.000 C 213.600 334.220,214.230 334.400,215.000 334.400 C 215.770 334.400,216.400 334.220,216.400 334.000 C 216.400 333.780,216.837 333.600,217.371 333.600 C 217.906 333.600,218.613 333.330,218.943 333.000 C 219.273 332.670,219.654 332.400,219.789 332.400 C 219.924 332.400,220.522 331.947,221.117 331.393 L 222.200 330.386 222.321 332.393 C 222.387 333.497,222.612 334.400,222.821 334.400 C 223.029 334.400,223.200 334.593,223.200 334.829 C 223.200 335.382,224.218 336.400,224.771 336.400 C 225.007 336.400,225.200 336.580,225.200 336.800 C 225.200 337.500,228.060 337.251,228.753 336.490 C 229.109 336.099,229.940 335.441,230.600 335.027 C 231.260 334.613,231.944 334.032,232.120 333.737 C 232.555 333.006,234.000 333.055,234.000 333.800 C 234.000 334.130,234.270 334.400,234.600 334.400 C 234.930 334.400,235.200 334.580,235.200 334.800 C 235.200 335.020,235.920 335.200,236.800 335.200 C 237.680 335.200,238.400 335.020,238.400 334.800 C 238.400 334.580,238.940 334.400,239.600 334.400 C 240.260 334.400,240.800 334.234,240.800 334.032 C 240.800 333.829,241.340 333.545,242.000 333.400 C 242.660 333.255,243.200 332.971,243.200 332.768 C 243.200 332.566,243.397 332.400,243.637 332.400 C 243.877 332.400,244.549 332.027,245.129 331.570 L 246.184 330.740 246.856 331.570 C 247.226 332.027,247.814 332.400,248.164 332.400 C 248.514 332.400,248.800 332.580,248.800 332.800 C 248.800 333.025,249.924 333.200,251.371 333.200 C 253.124 333.200,254.134 333.391,254.543 333.800 C 254.873 334.130,255.336 334.400,255.571 334.400 C 255.807 334.400,256.000 334.580,256.000 334.800 C 256.000 335.550,259.652 335.262,260.353 334.457 C 260.709 334.049,261.405 333.587,261.900 333.430 C 262.395 333.274,262.800 332.978,262.800 332.773 C 262.800 332.568,262.988 332.400,263.217 332.400 C 263.447 332.400,264.120 331.950,264.713 331.400 C 266.213 330.010,266.800 330.122,266.800 331.800 L 266.800 333.200 270.800 333.200 C 273.200 333.200,274.800 333.040,274.800 332.800 C 274.800 332.580,275.070 332.400,275.400 332.400 C 275.730 332.400,276.000 332.220,276.000 332.000 C 276.000 331.780,276.180 331.600,276.400 331.600 C 276.620 331.600,276.800 332.410,276.800 333.400 C 276.800 334.390,276.980 335.200,277.200 335.200 C 277.420 335.200,277.600 335.470,277.600 335.800 C 277.600 336.233,278.044 336.400,279.200 336.400 C 280.080 336.400,280.800 336.243,280.800 336.050 C 280.800 335.858,281.311 335.598,281.936 335.473 C 282.561 335.348,283.506 334.788,284.036 334.230 C 284.566 333.671,285.193 333.211,285.428 333.207 C 285.663 333.203,286.236 332.795,286.700 332.300 C 287.914 331.006,288.706 330.400,289.183 330.400 C 289.412 330.400,289.600 330.220,289.600 330.000 C 289.600 329.780,289.870 329.600,290.200 329.600 C 290.538 329.600,290.800 329.958,290.800 330.418 C 290.800 332.100,292.533 333.200,295.182 333.200 C 296.527 333.200,297.600 333.023,297.600 332.800 C 297.600 332.580,297.870 332.400,298.200 332.400 C 298.530 332.400,298.800 332.236,298.800 332.035 C 298.800 331.834,299.519 331.549,300.398 331.400 C 301.277 331.252,302.097 330.966,302.222 330.765 C 302.346 330.564,303.067 330.400,303.824 330.400 C 304.581 330.400,305.200 330.220,305.200 330.000 C 305.200 329.780,305.470 329.600,305.800 329.600 C 306.130 329.600,306.400 329.780,306.400 330.000 C 306.400 330.220,307.109 330.400,307.976 330.400 C 308.843 330.400,309.655 330.566,309.781 330.769 C 309.906 330.972,310.547 331.257,311.205 331.401 C 311.862 331.545,312.400 331.787,312.400 331.937 C 312.400 332.088,313.120 332.523,314.000 332.904 C 315.373 333.499,315.600 333.773,315.600 334.836 C 315.600 335.738,315.817 336.132,316.400 336.284 C 316.840 336.399,317.200 336.644,317.200 336.829 C 317.200 337.013,317.830 337.282,318.600 337.426 C 319.370 337.571,320.000 337.849,320.000 338.045 C 320.000 338.240,320.540 338.400,321.200 338.400 C 321.860 338.400,322.400 338.580,322.400 338.800 C 322.400 339.674,334.155 339.295,334.800 338.400 C 335.421 337.539,338.138 337.253,338.600 338.000 C 339.412 339.314,342.000 337.966,342.000 336.229 C 342.000 335.320,341.837 335.200,340.600 335.200 C 339.830 335.200,339.200 335.020,339.200 334.800 C 339.200 334.580,338.750 334.400,338.200 334.400 C 337.578 334.400,337.200 334.173,337.200 333.800 C 337.200 333.470,337.032 333.200,336.827 333.200 C 336.622 333.200,336.345 332.856,336.211 332.436 C 336.004 331.784,335.416 331.631,332.185 331.389 C 330.103 331.233,328.400 330.946,328.400 330.752 C 328.400 330.559,328.130 330.400,327.800 330.400 C 327.470 330.400,327.200 330.240,327.200 330.043 C 327.200 329.847,326.750 329.574,326.200 329.436 C 325.650 329.298,325.200 329.008,325.200 328.792 C 325.200 328.577,324.855 328.400,324.433 328.400 C 324.012 328.400,323.592 328.175,323.500 327.900 C 323.255 327.164,319.678 327.246,319.155 328.000 C 318.842 328.451,318.689 328.476,318.536 328.100 C 318.425 327.825,318.091 327.600,317.795 327.600 C 317.499 327.600,317.019 327.375,316.729 327.100 C 316.206 326.606,315.336 326.165,313.000 325.209 C 309.967 323.968,300.400 324.602,300.400 326.044 C 300.400 326.622,297.993 326.450,297.371 325.829 C 297.002 325.459,296.800 324.400,296.800 322.829 C 296.800 320.937,296.667 320.400,296.200 320.400 C 295.870 320.400,295.600 320.220,295.600 320.000 C 295.600 319.497,293.328 319.470,293.019 319.969 C 292.894 320.172,292.288 320.449,291.673 320.584 C 291.058 320.719,290.301 321.183,289.989 321.615 C 289.134 322.802,288.400 322.584,288.400 321.144 C 288.400 320.417,288.105 319.664,287.700 319.357 C 286.886 318.739,282.800 318.608,282.800 319.200 C 282.800 319.420,282.530 319.600,282.200 319.600 C 281.870 319.600,281.600 319.768,281.600 319.973 C 281.600 320.178,281.232 320.463,280.781 320.606 C 280.331 320.749,278.536 322.291,276.791 324.033 C 273.052 327.767,273.359 327.639,273.538 325.390 C 273.695 323.418,273.154 322.400,271.948 322.400 C 270.879 322.400,271.848 320.860,273.120 320.537 C 273.938 320.329,274.027 320.098,273.920 318.452 L 273.800 316.600 270.533 316.600 C 267.709 316.600,267.166 316.714,266.533 317.443 C 266.130 317.906,265.404 318.411,264.920 318.563 C 264.437 318.716,263.930 319.192,263.794 319.620 C 263.657 320.049,263.193 320.400,262.760 320.400 C 262.328 320.400,261.871 320.670,261.745 321.000 C 261.618 321.330,261.174 321.600,260.757 321.600 C 260.341 321.600,260.000 321.775,260.000 321.990 C 260.000 322.204,259.415 322.679,258.700 323.046 C 257.985 323.412,257.310 323.832,257.200 323.978 C 257.090 324.125,256.190 324.641,255.200 325.125 L 253.400 326.005 253.200 324.302 C 253.037 322.915,252.833 322.576,252.100 322.472 C 251.102 322.330,250.851 321.600,251.800 321.600 C 253.670 321.600,254.618 318.630,253.225 317.135 C 252.117 315.945,247.614 316.200,246.471 317.518 C 246.050 318.003,245.510 318.400,245.271 318.400 C 245.032 318.400,244.408 318.828,243.884 319.352 C 243.361 319.876,242.542 320.428,242.066 320.579 C 241.590 320.730,241.200 321.022,241.200 321.227 C 241.200 321.432,241.012 321.600,240.783 321.600 C 240.553 321.600,239.880 322.050,239.287 322.600 C 238.693 323.150,237.981 323.600,237.704 323.600 C 237.427 323.600,237.200 323.752,237.200 323.937 C 237.200 324.122,236.569 324.614,235.798 325.029 C 235.026 325.445,234.294 326.103,234.171 326.492 C 233.853 327.492,232.400 327.417,232.400 326.400 C 232.400 325.960,232.580 325.600,232.800 325.600 C 233.020 325.600,233.200 325.407,233.200 325.171 C 233.200 324.466,234.286 323.600,235.171 323.600 C 235.627 323.600,236.000 323.440,236.000 323.243 C 236.000 323.047,236.447 322.774,236.994 322.637 C 237.607 322.483,238.083 322.007,238.237 321.394 C 238.374 320.847,238.647 320.400,238.843 320.400 C 239.040 320.400,239.200 319.950,239.200 319.400 C 239.200 318.600,239.000 318.400,238.200 318.400 C 237.650 318.400,237.200 318.220,237.200 318.000 C 237.200 317.769,235.933 317.600,234.200 317.600 C 232.550 317.600,231.200 317.760,231.200 317.955 C 231.200 318.150,230.416 318.427,229.459 318.570 C 228.501 318.714,227.338 319.184,226.875 319.616 C 226.412 320.047,225.883 320.400,225.699 320.400 C 225.516 320.400,224.516 321.300,223.478 322.400 C 222.440 323.500,221.317 324.400,220.983 324.400 C 220.648 324.400,220.271 324.670,220.145 325.000 C 220.018 325.330,219.574 325.600,219.157 325.600 C 218.741 325.600,218.400 325.780,218.400 326.000 C 218.400 326.220,218.145 326.400,217.833 326.400 C 217.522 326.400,217.192 326.623,217.101 326.896 C 216.981 327.257,216.754 327.211,216.268 326.725 C 215.375 325.832,215.424 324.910,216.380 324.606 C 216.808 324.470,217.284 323.963,217.437 323.480 C 217.589 322.996,218.023 322.330,218.400 322.000 C 218.777 321.670,219.213 320.995,219.370 320.500 C 219.526 320.005,219.822 319.600,220.027 319.600 C 220.607 319.600,220.466 318.009,219.829 317.371 C 218.223 315.766,212.400 318.077,212.400 320.320 C 212.400 320.530,212.104 320.948,211.742 321.248 C 210.781 322.045,211.451 320.029,212.430 319.176 C 212.824 318.833,213.268 318.068,213.417 317.476 C 213.565 316.884,213.847 316.400,214.043 316.400 C 214.240 316.400,214.400 316.059,214.400 315.643 C 214.400 315.226,214.670 314.782,215.000 314.655 C 215.330 314.529,215.600 314.059,215.600 313.613 C 215.600 313.166,215.780 312.800,216.000 312.800 C 216.220 312.800,216.400 312.607,216.400 312.371 C 216.400 312.136,216.670 311.673,217.000 311.343 C 217.330 311.013,217.600 310.300,217.600 309.759 C 217.600 309.218,217.330 308.671,217.000 308.545 C 216.670 308.418,216.400 307.995,216.400 307.604 C 216.400 306.807,215.328 306.414,213.133 306.405 C 211.176 306.398,210.400 306.738,210.400 307.600 C 210.400 307.993,210.130 308.418,209.800 308.545 C 209.470 308.671,209.200 309.141,209.200 309.587 C 209.200 310.034,209.020 310.400,208.800 310.400 C 208.580 310.400,208.400 310.670,208.400 311.000 C 208.400 311.330,208.228 311.600,208.018 311.600 C 207.808 311.600,207.518 312.230,207.374 313.000 C 207.229 313.770,206.951 314.400,206.755 314.400 C 206.560 314.400,206.400 314.670,206.400 315.000 C 206.400 315.330,206.228 315.600,206.018 315.600 C 205.808 315.600,205.518 316.230,205.374 317.000 C 205.229 317.770,204.951 318.400,204.755 318.400 C 204.560 318.400,204.400 318.670,204.400 319.000 C 204.400 319.330,204.223 319.600,204.008 319.600 C 203.792 319.600,203.502 320.050,203.364 320.600 C 203.226 321.150,202.953 321.600,202.757 321.600 C 202.560 321.600,202.400 321.870,202.400 322.200 C 202.400 322.530,202.240 322.800,202.045 322.800 C 201.849 322.800,200.868 323.610,199.864 324.600 C 197.658 326.774,197.600 326.783,197.600 324.931 C 197.600 324.124,197.326 323.160,196.990 322.789 C 196.239 321.959,196.620 320.800,197.643 320.800 C 198.538 320.800,198.756 317.716,197.920 316.880 C 197.208 316.168,192.598 316.259,191.857 317.000 C 191.527 317.330,191.064 317.600,190.829 317.600 C 190.593 317.600,190.400 317.768,190.400 317.973 C 190.400 318.178,189.995 318.474,189.500 318.630 C 189.005 318.787,188.309 319.249,187.953 319.657 C 187.597 320.066,187.110 320.400,186.871 320.400 C 186.632 320.400,185.986 320.850,185.436 321.400 C 184.886 321.950,184.261 322.400,184.047 322.400 C 183.833 322.400,183.304 322.850,182.871 323.400 C 182.439 323.950,181.877 324.400,181.623 324.400 C 181.369 324.400,180.745 324.850,180.235 325.400 C 179.725 325.950,179.181 326.400,179.026 326.400 C 178.870 326.400,178.492 326.625,178.185 326.900 C 176.159 328.717,176.000 328.754,176.000 327.400 C 176.000 326.850,176.180 326.400,176.400 326.400 C 176.620 326.400,176.800 326.040,176.800 325.600 C 176.800 325.160,176.980 324.800,177.200 324.800 C 177.907 324.800,177.626 323.396,176.800 322.800 C 176.360 322.483,176.000 321.989,176.000 321.703 C 176.000 321.417,175.550 320.978,175.000 320.727 C 174.450 320.477,174.000 320.120,174.000 319.936 C 174.000 319.751,173.730 319.600,173.400 319.600 C 173.070 319.600,172.800 319.420,172.800 319.200 C 172.800 318.617,166.959 318.702,165.925 319.300 C 164.330 320.222,163.600 320.973,163.600 321.689 C 163.600 322.080,163.420 322.400,163.200 322.400 C 162.980 322.400,162.800 322.774,162.800 323.231 C 162.800 324.364,159.893 327.161,158.407 327.459 C 156.956 327.749,156.665 326.360,157.943 325.247 C 158.351 324.891,158.811 324.204,158.963 323.720 C 159.116 323.237,159.565 322.738,159.962 322.612 C 160.982 322.288,162.098 320.021,161.937 318.603 C 161.638 315.984,156.857 315.625,155.407 318.113 C 154.994 318.821,154.239 319.766,153.728 320.213 C 153.218 320.660,152.800 321.291,152.800 321.617 C 152.800 321.942,152.440 322.432,152.000 322.707 C 151.526 323.003,151.200 323.043,151.200 322.803 C 151.200 322.582,151.380 322.400,151.600 322.400 C 151.820 322.400,152.000 322.040,152.000 321.600 C 152.000 321.160,152.160 320.800,152.357 320.800 C 152.553 320.800,152.835 320.316,152.983 319.724 C 153.132 319.132,153.601 318.346,154.026 317.977 C 154.451 317.609,154.911 316.743,155.049 316.054 C 155.187 315.364,155.458 314.800,155.650 314.800 C 155.843 314.800,156.000 314.607,156.000 314.371 C 156.000 314.136,156.270 313.673,156.600 313.343 C 156.930 313.013,157.200 312.306,157.200 311.771 C 157.200 311.237,157.380 310.800,157.600 310.800 C 157.820 310.800,158.000 310.260,158.000 309.600 C 158.000 308.940,157.833 308.400,157.628 308.400 C 157.423 308.400,157.198 307.995,157.128 307.500 C 157.046 306.922,156.678 306.554,156.100 306.472 C 155.605 306.402,155.200 306.177,155.200 305.972 C 155.200 304.316,151.406 306.553,150.988 308.455 C 150.850 309.085,150.613 309.600,150.463 309.600 C 150.165 309.600,148.800 312.557,148.800 313.203 C 148.800 313.421,148.620 313.600,148.400 313.600 C 148.180 313.600,148.000 313.870,148.000 314.200 C 148.000 314.530,147.820 314.800,147.600 314.800 C 147.380 314.800,147.200 315.138,147.200 315.551 C 147.200 315.964,146.930 316.526,146.600 316.800 C 146.270 317.074,146.000 317.546,146.000 317.849 C 146.000 318.152,145.834 318.400,145.632 318.400 C 145.429 318.400,145.145 318.940,145.000 319.600 C 144.855 320.260,144.571 320.800,144.368 320.800 C 144.166 320.800,144.000 321.160,144.000 321.600 C 144.000 322.040,143.820 322.400,143.600 322.400 C 143.380 322.400,143.200 322.653,143.200 322.963 C 143.200 323.719,139.939 327.039,138.859 327.381 C 138.387 327.531,138.000 327.822,138.000 328.027 C 138.000 328.232,137.640 328.400,137.200 328.400 C 136.760 328.400,136.400 328.578,136.400 328.795 C 136.400 329.013,135.680 329.306,134.800 329.446 C 133.920 329.587,133.200 329.859,133.200 330.051 C 133.200 330.243,132.585 330.400,131.833 330.400 C 131.082 330.400,130.393 330.620,130.304 330.889 C 130.084 331.549,116.701 331.504,116.481 330.843 C 116.400 330.600,115.733 330.400,115.000 330.400 C 114.267 330.400,113.607 330.221,113.533 330.003 C 113.460 329.785,111.999 329.488,110.287 329.343 C 108.574 329.199,107.079 328.927,106.963 328.740 C 106.688 328.295,87.600 328.296,87.600 328.741 C 87.600 328.928,85.845 329.205,83.700 329.355 C 81.555 329.505,79.740 329.801,79.667 330.014 C 79.593 330.226,78.933 330.400,78.200 330.400 C 77.467 330.400,76.807 330.564,76.733 330.764 C 76.532 331.314,73.086 331.680,72.400 331.224 C 71.650 330.726,71.609 321.130,72.355 320.882 C 72.600 320.800,72.800 320.208,72.800 319.567 C 72.800 318.925,72.971 318.400,73.180 318.400 C 73.389 318.400,73.682 317.320,73.832 316.000 C 73.981 314.680,74.260 313.600,74.452 313.600 C 74.643 313.600,74.800 313.150,74.800 312.600 C 74.800 312.050,74.964 311.600,75.165 311.600 C 75.366 311.600,75.651 310.881,75.800 310.002 C 75.948 309.123,76.234 308.303,76.435 308.178 C 76.636 308.054,76.800 307.625,76.800 307.225 C 76.800 306.093,77.784 305.458,78.396 306.195 C 78.672 306.528,79.236 306.800,79.649 306.800 C 80.062 306.800,80.400 306.936,80.400 307.102 C 80.400 307.452,82.102 308.235,83.700 308.621 C 84.305 308.767,84.800 309.047,84.800 309.243 C 84.800 309.440,85.149 309.600,85.576 309.600 C 86.003 309.600,86.458 309.770,86.586 309.977 C 86.714 310.184,87.624 310.475,88.609 310.622 C 89.594 310.770,90.400 311.050,90.400 311.245 C 90.400 311.440,92.290 311.600,94.600 311.600 C 96.910 311.600,98.800 311.443,98.800 311.252 C 98.800 311.061,99.632 310.810,100.648 310.696 C 103.393 310.386,104.400 309.130,104.400 306.017 C 104.400 304.688,104.232 303.600,104.027 303.600 C 103.822 303.600,103.540 303.240,103.400 302.799 C 103.060 301.729,98.175 296.800,97.455 296.800 C 97.142 296.800,96.782 296.530,96.655 296.200 C 96.529 295.870,96.059 295.600,95.613 295.600 C 95.166 295.600,94.800 295.420,94.800 295.200 C 94.800 294.980,94.365 294.800,93.833 294.800 C 93.302 294.800,92.792 294.575,92.700 294.300 C 92.575 293.926,90.791 293.800,85.600 293.800 C 80.409 293.800,78.625 293.926,78.500 294.300 C 78.408 294.575,77.988 294.800,77.567 294.800 C 77.145 294.800,76.800 294.980,76.800 295.200 C 76.800 296.002,74.970 295.573,74.239 294.600 C 73.826 294.050,73.165 293.600,72.771 293.600 C 72.377 293.600,71.940 293.240,71.800 292.800 C 71.660 292.360,71.377 292.000,71.170 292.000 C 70.964 292.000,70.403 291.550,69.925 291.000 C 69.447 290.450,68.818 290.000,68.528 290.000 C 68.238 290.000,68.000 289.760,68.000 289.466 C 68.000 289.172,67.441 288.434,66.758 287.826 C 65.572 286.769,65.322 284.941,66.239 284.029 C 66.681 283.589,75.365 283.895,75.519 284.356 C 75.600 284.600,76.091 284.800,76.610 284.800 C 77.128 284.800,77.658 284.970,77.786 285.177 C 77.914 285.384,78.824 285.675,79.809 285.822 C 80.794 285.970,81.600 286.250,81.600 286.445 C 81.600 286.640,82.050 286.800,82.600 286.800 C 83.150 286.800,83.600 286.978,83.600 287.195 C 83.600 287.413,84.320 287.706,85.200 287.846 C 86.080 287.987,86.800 288.259,86.800 288.451 C 86.800 288.643,87.160 288.800,87.600 288.800 C 88.040 288.800,88.400 288.957,88.400 289.149 C 88.400 289.341,89.120 289.613,90.000 289.754 C 90.880 289.894,91.600 290.145,91.600 290.310 C 91.600 290.724,94.623 292.000,95.603 292.000 C 96.041 292.000,96.400 292.180,96.400 292.400 C 96.400 292.620,96.670 292.800,97.000 292.800 C 97.330 292.800,97.600 292.960,97.600 293.155 C 97.600 293.351,98.230 293.629,99.000 293.774 C 99.770 293.918,100.400 294.208,100.400 294.418 C 100.400 294.628,100.670 294.800,101.000 294.800 C 101.330 294.800,101.600 294.960,101.600 295.155 C 101.600 295.351,102.230 295.629,103.000 295.774 C 103.770 295.918,104.400 296.208,104.400 296.418 C 104.400 296.628,104.682 296.800,105.027 296.800 C 105.476 296.800,105.580 297.032,105.395 297.617 C 104.953 299.009,105.579 301.539,106.432 301.810 C 107.075 302.014,107.200 302.438,107.200 304.409 C 107.200 306.356,107.365 306.929,108.152 307.716 C 108.676 308.239,109.228 309.057,109.379 309.533 C 109.780 310.798,110.336 310.848,122.629 310.718 C 134.665 310.592,134.265 310.661,135.500 308.490 C 136.641 306.483,135.765 302.114,134.600 304.000 C 134.165 304.704,133.200 304.428,133.200 303.600 C 133.200 302.949,133.467 302.800,134.629 302.800 C 136.745 302.800,137.200 302.105,137.200 298.874 L 137.200 296.091 139.085 295.808 C 140.122 295.653,141.247 295.210,141.585 294.825 C 141.923 294.441,142.605 293.911,143.100 293.649 C 143.595 293.386,144.000 292.927,144.000 292.629 C 144.000 292.330,144.270 291.982,144.600 291.855 C 144.930 291.729,145.200 291.259,145.200 290.813 C 145.200 290.366,145.380 290.000,145.600 290.000 C 145.820 290.000,146.000 289.550,146.000 289.000 C 146.000 288.450,146.153 288.000,146.340 288.000 C 146.526 288.000,146.795 286.246,146.935 284.101 C 147.076 281.957,147.373 280.142,147.596 280.068 C 148.600 279.733,148.053 276.000,147.000 276.000 C 146.450 276.000,146.000 275.843,146.000 275.650 C 146.000 275.457,145.445 275.189,144.767 275.053 C 143.524 274.805,142.038 273.426,142.013 272.500 C 142.006 272.225,141.822 272.000,141.605 272.000 C 141.387 272.000,141.094 271.280,140.954 270.400 C 140.813 269.520,140.541 268.800,140.349 268.800 C 140.157 268.800,140.000 267.720,140.000 266.400 C 140.000 265.067,139.822 264.000,139.600 264.000 C 139.360 264.000,139.200 262.408,139.200 260.024 C 139.200 257.804,139.377 255.938,139.600 255.800 C 139.843 255.650,140.000 252.729,140.000 248.376 C 140.000 243.859,139.852 241.200,139.600 241.200 C 139.380 241.200,139.200 240.606,139.200 239.880 C 139.200 238.454,138.412 236.408,137.860 236.403 C 137.674 236.401,136.639 235.500,135.562 234.400 C 134.485 233.300,133.414 232.400,133.183 232.400 C 132.951 232.400,132.345 231.950,131.835 231.400 C 131.325 230.850,130.704 230.400,130.454 230.400 C 130.204 230.400,130.000 230.232,130.000 230.027 C 130.000 229.822,129.595 229.526,129.100 229.370 C 128.605 229.213,127.919 228.763,127.576 228.370 C 127.233 227.976,126.423 227.523,125.776 227.363 C 125.129 227.203,124.272 226.699,123.872 226.242 C 123.118 225.383,119.574 225.041,115.900 225.472 M121.030 228.135 C 121.143 228.429,121.273 229.441,121.318 230.383 L 121.400 232.097 117.200 233.588 C 113.786 234.800,112.976 235.241,112.872 235.940 C 112.735 236.865,113.199 237.023,114.305 236.425 C 115.226 235.928,120.308 234.106,121.700 233.775 C 122.758 233.523,122.800 233.573,122.800 235.086 C 122.800 236.829,123.578 236.327,114.700 240.305 C 112.404 241.333,112.400 241.338,112.400 243.097 L 112.400 244.859 114.500 243.675 C 123.681 238.501,123.738 238.479,123.527 240.277 C 123.404 241.317,121.139 242.738,113.600 246.506 C 112.898 246.857,112.563 247.392,112.475 248.303 C 112.330 249.804,112.693 249.914,114.109 248.800 C 114.669 248.360,115.245 248.000,115.390 248.000 C 115.535 248.000,116.226 247.595,116.927 247.099 C 118.439 246.029,119.040 245.656,122.202 243.829 C 124.820 242.316,124.418 242.318,129.713 243.789 C 130.985 244.142,132.200 244.324,132.413 244.192 C 133.226 243.690,132.747 242.853,131.500 242.598 C 127.439 241.769,124.800 240.748,124.800 240.007 C 124.800 238.834,125.376 238.720,127.943 239.385 C 131.485 240.303,131.994 240.236,131.637 238.900 C 131.383 237.949,131.076 237.760,129.372 237.505 C 124.468 236.771,124.209 236.670,124.069 235.447 C 123.880 233.800,124.464 233.411,126.058 234.119 C 128.452 235.182,128.800 235.228,128.800 234.483 C 128.800 233.969,128.026 233.555,125.800 232.878 L 122.800 231.966 122.800 230.359 C 122.800 229.181,122.933 228.833,123.300 229.053 C 127.946 231.838,131.176 234.247,135.307 238.008 C 137.162 239.697,138.442 252.920,136.900 254.461 C 136.188 255.172,136.281 255.600,137.148 255.600 C 138.044 255.600,138.389 257.208,138.396 261.413 L 138.400 264.225 136.700 264.692 C 135.765 264.949,132.750 265.388,130.000 265.669 C 124.385 266.242,124.436 266.268,132.145 266.728 C 137.312 267.036,137.738 267.123,138.403 268.003 C 139.429 269.364,140.639 274.721,140.053 275.307 C 139.448 275.912,139.480 276.400,140.125 276.400 C 142.638 276.400,143.555 282.883,141.117 283.418 C 140.290 283.600,139.780 283.540,139.683 283.250 C 139.365 282.294,138.037 282.874,136.770 284.524 C 134.604 287.346,131.034 289.819,127.671 290.826 C 125.719 291.411,125.737 291.356,126.900 293.101 C 127.807 294.463,129.724 294.695,132.205 293.743 C 132.616 293.585,132.800 293.775,132.800 294.357 C 132.800 294.904,132.546 295.200,132.076 295.200 C 131.679 295.200,131.004 295.464,130.576 295.787 C 129.831 296.351,129.844 296.375,130.876 296.387 C 131.468 296.394,132.064 296.580,132.200 296.800 C 132.336 297.020,132.977 297.200,133.624 297.200 C 135.951 297.200,135.315 299.832,132.900 300.194 C 131.855 300.350,130.893 300.652,130.761 300.864 C 130.612 301.105,129.265 301.025,127.161 300.650 C 125.313 300.321,122.900 299.957,121.800 299.841 C 120.700 299.726,119.440 299.545,119.000 299.440 C 117.248 299.020,113.600 298.878,113.600 299.229 C 113.600 299.433,114.311 299.600,115.180 299.600 C 116.049 299.600,117.624 299.768,118.680 299.974 C 119.736 300.179,122.085 300.571,123.900 300.846 C 128.788 301.584,127.914 302.043,121.700 301.999 C 118.675 301.978,115.755 301.969,115.211 301.980 L 114.222 302.000 115.111 302.623 C 116.461 303.568,116.285 304.800,114.800 304.800 C 114.140 304.800,113.600 304.980,113.600 305.200 C 113.600 305.436,115.119 305.611,117.300 305.628 C 119.335 305.643,123.070 305.830,125.600 306.043 C 128.130 306.257,130.740 306.469,131.400 306.516 C 132.653 306.604,132.969 306.892,132.699 307.703 C 132.491 308.327,127.308 308.724,119.000 308.752 C 112.190 308.776,111.200 308.537,111.200 306.872 C 111.200 306.410,110.948 305.799,110.641 305.516 C 110.167 305.079,110.213 304.926,110.941 304.514 C 111.413 304.247,111.575 304.022,111.300 304.014 C 111.025 304.006,110.800 303.571,110.800 303.047 C 110.800 302.429,110.309 301.721,109.400 301.027 C 107.608 299.660,107.633 299.208,109.500 299.169 L 111.000 299.139 109.432 298.666 C 106.854 297.888,108.476 296.601,111.577 296.965 C 112.799 297.109,115.240 297.307,117.000 297.406 L 120.200 297.586 117.800 297.058 C 112.270 295.840,110.941 295.252,111.345 294.199 C 111.627 293.465,112.559 293.498,116.600 294.389 C 119.533 295.036,125.200 295.378,125.200 294.909 C 125.200 294.694,123.677 294.401,121.816 294.258 C 118.618 294.012,117.906 293.836,115.000 292.574 C 114.340 292.288,112.945 291.838,111.900 291.575 C 109.194 290.893,109.550 290.400,112.749 290.400 C 118.227 290.400,125.194 287.878,128.188 284.812 C 130.243 282.708,128.799 282.456,126.403 284.500 C 118.970 290.842,107.856 290.935,100.468 284.719 L 99.200 283.652 99.206 279.126 C 99.213 274.643,99.225 274.587,100.446 273.200 C 101.124 272.430,102.271 271.125,102.994 270.300 C 105.112 267.883,105.600 269.073,105.600 276.659 C 105.600 278.276,105.722 279.600,105.872 279.600 C 107.700 279.600,108.661 278.646,108.046 277.441 C 106.560 274.533,105.904 269.274,106.814 267.574 C 107.155 266.936,107.700 266.791,109.914 266.748 C 111.391 266.719,113.950 266.582,115.600 266.444 L 118.600 266.193 113.400 265.654 C 110.540 265.357,107.975 264.932,107.700 264.708 C 107.076 264.201,107.019 258.685,107.626 257.552 C 108.661 255.617,107.522 256.280,103.800 259.779 C 99.487 263.833,99.086 263.938,99.276 260.959 C 99.398 259.034,99.438 258.981,102.000 257.327 C 105.472 255.087,105.600 254.953,105.600 253.584 C 105.600 252.012,105.227 252.080,102.333 254.186 C 99.442 256.289,99.200 256.230,99.200 253.422 L 99.200 251.290 102.195 249.577 C 105.016 247.962,105.965 246.914,105.411 246.018 C 105.179 245.642,104.555 245.926,101.147 247.957 C 99.858 248.726,99.667 248.751,99.447 248.179 C 98.938 246.853,99.273 246.364,102.200 244.161 C 104.819 242.190,105.199 241.744,105.194 240.652 C 105.191 239.963,105.056 239.586,104.894 239.813 C 104.378 240.538,100.556 242.800,99.847 242.800 C 99.161 242.800,99.157 242.217,99.818 238.949 C 100.134 237.390,105.624 232.705,109.240 230.910 C 113.699 228.695,115.880 228.044,120.113 227.664 C 120.504 227.629,120.917 227.841,121.030 228.135 M123.400 247.017 C 120.216 248.535,115.113 250.877,113.727 251.456 C 112.799 251.844,112.420 252.288,112.327 253.094 C 112.218 254.046,112.022 254.200,110.917 254.197 C 110.212 254.196,109.762 254.298,109.917 254.424 C 110.423 254.835,114.440 255.693,114.690 255.443 C 114.824 255.309,114.723 255.200,114.467 255.200 C 113.841 255.200,113.868 252.998,114.500 252.516 C 114.775 252.306,116.620 251.453,118.600 250.621 C 120.580 249.789,122.955 248.769,123.878 248.354 C 126.068 247.370,126.285 247.388,129.337 248.800 C 132.308 250.175,133.012 250.268,133.372 249.329 C 133.762 248.312,132.910 247.784,129.373 246.851 C 125.532 245.838,125.893 245.828,123.400 247.017 M116.100 255.876 C 116.485 255.976,117.115 255.976,117.500 255.876 C 117.885 255.775,117.570 255.693,116.800 255.693 C 116.030 255.693,115.715 255.775,116.100 255.876 M132.900 255.876 C 133.285 255.976,133.915 255.976,134.300 255.876 C 134.685 255.775,134.370 255.693,133.600 255.693 C 132.830 255.693,132.515 255.775,132.900 255.876 M122.700 256.696 C 124.075 256.774,126.325 256.774,127.700 256.696 C 129.075 256.618,127.950 256.554,125.200 256.554 C 122.450 256.554,121.325 256.618,122.700 256.696 M105.588 262.900 C 105.576 264.560,100.166 271.232,99.429 270.495 C 98.412 269.478,99.307 267.425,102.100 264.371 C 105.462 260.695,105.604 260.635,105.588 262.900 M128.757 273.300 C 128.943 273.795,129.224 275.595,129.382 277.300 C 129.668 280.392,129.671 280.400,130.834 280.400 C 131.997 280.400,132.000 280.394,132.005 277.900 C 132.008 276.525,132.117 275.005,132.246 274.522 C 132.441 273.796,132.226 273.538,130.992 273.022 C 128.869 272.136,128.345 272.201,128.757 273.300 M133.774 283.122 C 131.617 286.428,125.948 290.000,122.858 290.000 C 121.790 290.000,120.800 290.406,120.800 290.843 C 120.800 291.832,125.961 290.706,129.547 288.935 C 131.708 287.868,137.600 282.507,137.600 281.608 C 137.600 280.268,134.953 281.315,133.774 283.122 M141.824 290.220 C 141.139 291.265,140.229 291.495,139.763 290.739 C 139.596 290.470,140.044 289.815,140.839 289.163 C 142.392 287.889,142.955 288.493,141.824 290.220 M90.729 300.387 C 90.805 300.614,91.212 300.800,91.633 300.800 C 92.055 300.800,92.400 300.980,92.400 301.200 C 92.400 301.420,92.649 301.600,92.953 301.600 C 93.556 301.600,96.800 304.675,96.800 305.247 C 96.800 305.721,94.509 305.700,94.214 305.223 C 94.086 305.016,93.176 304.725,92.191 304.578 C 91.206 304.430,90.400 304.150,90.400 303.955 C 90.400 303.760,90.040 303.600,89.600 303.600 C 89.160 303.600,88.800 303.462,88.800 303.294 C 88.800 302.923,85.831 301.600,84.997 301.600 C 84.669 301.600,84.400 301.420,84.400 301.200 C 84.400 300.980,84.040 300.800,83.600 300.800 C 82.711 300.800,82.522 300.194,83.300 299.838 C 84.120 299.462,90.580 299.940,90.729 300.387 M130.600 303.800 C 130.600 304.232,120.027 304.915,118.500 304.581 C 118.005 304.473,117.600 304.114,117.600 303.782 C 117.600 303.266,118.529 303.196,124.100 303.290 C 128.093 303.358,130.600 303.554,130.600 303.800 M323.100 329.996 C 324.524 330.864,324.650 331.175,323.900 331.969 C 323.487 332.406,323.559 332.416,324.315 332.027 C 325.354 331.492,326.949 331.835,326.680 332.536 C 326.561 332.846,327.114 333.002,328.351 333.005 C 330.882 333.011,331.848 333.420,331.194 334.207 C 330.921 334.536,330.577 335.389,330.429 336.102 L 330.161 337.400 327.181 337.399 C 321.544 337.397,317.394 335.532,317.858 333.211 C 318.440 330.302,321.013 328.723,323.100 329.996 M338.900 335.990 C 339.725 335.996,340.400 336.180,340.400 336.400 C 340.400 336.959,337.736 336.888,335.686 336.275 C 333.630 335.660,333.818 335.149,335.920 335.637 C 336.734 335.826,338.075 335.985,338.900 335.990 " stroke="none" fill="#040404" fill-rule="evenodd"></path><path id="path4" d="M118.000 227.882 C 111.958 228.545,100.514 235.511,99.818 238.949 C 99.164 242.181,99.165 242.800,99.822 242.800 C 100.622 242.800,104.773 240.338,104.789 239.854 C 104.795 239.664,104.321 239.822,103.735 240.206 C 103.149 240.590,102.069 241.259,101.335 241.692 L 100.000 242.479 100.000 240.653 C 100.000 237.928,103.843 234.071,109.200 231.422 C 110.410 230.824,111.713 230.169,112.095 229.967 C 112.477 229.765,113.116 229.600,113.515 229.600 C 113.914 229.600,114.411 229.429,114.620 229.221 C 114.829 229.012,116.215 228.718,117.700 228.566 L 120.400 228.290 120.400 229.745 C 120.400 230.545,120.445 231.320,120.500 231.467 C 120.555 231.613,120.060 231.896,119.400 232.096 C 118.740 232.295,117.795 232.625,117.300 232.829 C 115.815 233.441,114.671 233.892,113.300 234.408 C 112.264 234.798,112.000 235.122,112.000 236.006 C 112.000 237.110,112.961 237.911,113.411 237.183 C 113.541 236.972,113.444 236.800,113.196 236.800 C 112.948 236.800,112.802 236.413,112.872 235.940 C 112.976 235.241,113.786 234.800,117.200 233.588 L 121.400 232.097 121.318 230.383 C 121.210 228.126,120.971 227.587,120.113 227.664 C 119.721 227.699,118.770 227.797,118.000 227.882 M122.800 230.359 L 122.800 231.966 125.800 232.878 C 128.026 233.555,128.800 233.969,128.800 234.483 C 128.800 235.228,128.452 235.182,126.058 234.119 C 124.464 233.411,123.880 233.800,124.069 235.447 C 124.209 236.670,124.468 236.771,129.372 237.505 C 131.076 237.760,131.383 237.949,131.637 238.900 C 131.994 240.236,131.485 240.303,127.943 239.385 C 125.376 238.720,124.800 238.834,124.800 240.007 C 124.800 240.748,127.439 241.769,131.500 242.598 C 132.747 242.853,133.226 243.690,132.413 244.192 C 132.200 244.324,130.985 244.142,129.713 243.789 C 124.418 242.318,124.820 242.316,122.202 243.829 C 119.040 245.656,118.439 246.029,116.927 247.099 C 116.226 247.595,115.535 248.000,115.390 248.000 C 115.245 248.000,114.669 248.360,114.109 248.800 C 112.693 249.914,112.330 249.804,112.475 248.303 C 112.563 247.392,112.898 246.857,113.600 246.506 C 121.139 242.738,123.404 241.317,123.527 240.277 C 123.738 238.479,123.681 238.501,114.500 243.675 L 112.400 244.859 112.400 243.100 L 112.400 241.342 115.300 240.034 C 116.895 239.314,119.235 238.262,120.500 237.695 C 122.732 236.695,122.800 236.619,122.800 235.101 C 122.800 233.275,122.414 233.270,117.912 235.034 C 116.557 235.565,115.223 236.000,114.948 236.000 C 114.672 236.000,114.324 236.199,114.174 236.443 C 113.876 236.924,116.257 236.561,117.000 236.012 C 117.220 235.850,118.120 235.532,119.000 235.306 C 119.880 235.080,120.915 234.765,121.300 234.605 C 121.854 234.375,122.000 234.517,122.000 235.283 C 122.000 236.018,121.663 236.383,120.600 236.800 C 119.830 237.102,119.200 237.496,119.200 237.675 C 119.200 237.854,119.031 238.000,118.824 238.000 C 118.617 238.000,116.907 238.715,115.024 239.589 L 111.600 241.178 111.600 243.189 C 111.600 245.779,111.693 245.773,117.433 242.800 C 122.476 240.188,122.400 240.219,122.400 240.800 C 122.400 241.020,122.130 241.200,121.800 241.200 C 121.470 241.200,121.200 241.380,121.200 241.600 C 121.200 241.820,121.046 242.000,120.857 242.000 C 120.669 242.000,118.951 242.900,117.039 244.000 C 115.127 245.100,113.420 246.000,113.244 246.000 C 112.023 246.000,110.978 249.568,112.011 250.207 C 112.237 250.347,114.436 249.277,116.898 247.831 C 121.239 245.279,122.400 244.802,122.400 245.567 C 122.400 246.466,121.856 247.200,121.191 247.200 C 120.792 247.200,120.407 247.335,120.333 247.500 C 120.260 247.665,118.760 248.491,117.000 249.335 C 115.240 250.179,113.404 251.059,112.919 251.292 C 112.435 251.524,111.859 252.228,111.641 252.856 C 111.282 253.885,111.140 253.958,110.195 253.598 C 108.632 253.004,108.463 253.076,107.821 254.613 C 107.496 255.389,105.762 257.414,103.968 259.113 C 99.553 263.290,99.526 263.302,99.677 260.943 C 99.788 259.211,99.941 258.940,101.225 258.210 C 102.864 257.278,105.402 255.355,104.200 255.956 C 100.596 257.757,99.402 258.970,99.276 260.959 C 99.092 263.856,99.507 263.829,102.800 260.728 C 108.650 255.219,109.129 254.800,109.586 254.800 C 109.840 254.800,109.963 254.664,109.861 254.498 C 109.758 254.332,110.243 254.197,110.937 254.198 C 112.024 254.200,112.218 254.044,112.329 253.079 C 112.412 252.355,112.777 251.837,113.361 251.615 C 113.857 251.426,115.779 250.565,117.632 249.702 C 119.484 248.839,122.103 247.638,123.451 247.033 L 125.903 245.934 129.251 246.818 C 132.907 247.783,133.765 248.306,133.372 249.329 C 133.012 250.268,132.308 250.175,129.337 248.800 C 126.285 247.388,126.068 247.370,123.878 248.354 C 122.955 248.769,120.580 249.789,118.600 250.621 C 114.186 252.477,114.000 252.615,114.000 254.049 C 114.000 254.688,114.222 255.213,114.500 255.228 C 114.775 255.244,114.640 255.397,114.200 255.569 C 112.702 256.155,118.335 256.649,125.800 256.586 C 133.508 256.522,136.965 256.191,136.573 255.557 C 136.440 255.341,136.572 254.876,136.866 254.522 C 138.418 252.654,137.199 239.730,135.307 238.008 C 131.176 234.247,127.946 231.838,123.300 229.053 C 122.933 228.833,122.800 229.181,122.800 230.359 M105.200 240.472 C 105.200 241.786,104.954 242.088,102.200 244.161 C 99.273 246.364,98.938 246.853,99.447 248.179 C 99.667 248.751,99.858 248.726,101.147 247.957 C 104.555 245.926,105.179 245.642,105.411 246.018 C 105.965 246.914,105.016 247.962,102.195 249.577 L 99.200 251.290 99.200 253.422 C 99.200 256.230,99.442 256.289,102.333 254.186 C 105.398 251.956,105.768 251.934,105.491 254.000 C 105.369 254.909,105.432 255.504,105.638 255.376 C 106.137 255.068,106.097 251.600,105.594 251.600 C 105.370 251.600,104.074 252.410,102.714 253.400 C 99.642 255.635,99.528 255.632,99.678 253.313 L 99.800 251.426 102.900 249.691 C 105.831 248.051,106.000 247.881,106.000 246.578 C 106.000 244.839,105.597 244.842,102.680 246.601 C 98.563 249.084,98.630 247.075,102.760 244.227 C 105.527 242.320,106.580 240.509,105.557 239.420 C 105.343 239.193,105.200 239.615,105.200 240.472 M122.400 252.600 L 122.400 255.200 120.256 255.200 C 114.380 255.200,112.622 254.024,116.100 252.420 C 118.225 251.440,121.701 250.051,122.100 250.022 C 122.265 250.010,122.400 251.170,122.400 252.600 M110.800 255.200 C 111.130 255.413,111.850 255.578,112.400 255.566 C 113.316 255.546,113.333 255.515,112.600 255.200 C 111.416 254.691,110.013 254.691,110.800 255.200 M117.500 255.876 C 117.115 255.976,116.485 255.976,116.100 255.876 C 115.715 255.775,116.030 255.693,116.800 255.693 C 117.570 255.693,117.885 255.775,117.500 255.876 M134.300 255.876 C 133.915 255.976,133.285 255.976,132.900 255.876 C 132.515 255.775,132.830 255.693,133.600 255.693 C 134.370 255.693,134.685 255.775,134.300 255.876 M137.727 259.899 C 137.767 262.374,137.935 264.399,138.100 264.399 C 138.495 264.400,138.398 258.141,137.979 256.600 C 137.768 255.824,137.679 256.990,137.727 259.899 M124.500 257.076 C 124.885 257.176,125.515 257.176,125.900 257.076 C 126.285 256.975,125.970 256.893,125.200 256.893 C 124.430 256.893,124.115 256.975,124.500 257.076 M107.443 257.833 C 107.000 258.986,107.181 264.221,107.680 264.720 C 107.944 264.984,108.799 265.173,109.580 265.140 C 110.936 265.083,110.946 265.072,109.800 264.905 C 107.683 264.595,107.477 264.163,107.705 260.509 C 107.915 257.138,107.873 256.711,107.443 257.833 M102.100 264.371 C 99.307 267.425,98.412 269.478,99.429 270.495 C 100.166 271.232,105.576 264.560,105.588 262.900 C 105.604 260.635,105.462 260.695,102.100 264.371 M105.015 263.509 C 104.810 264.727,104.184 265.633,102.176 267.624 L 99.600 270.177 99.611 268.788 C 99.619 267.628,100.064 266.935,102.311 264.573 C 105.349 261.378,105.377 261.367,105.015 263.509 M134.000 264.800 L 132.600 265.095 134.200 265.141 C 135.080 265.167,136.070 265.013,136.400 264.800 C 137.124 264.332,136.223 264.332,134.000 264.800 M111.900 265.482 C 112.395 265.578,113.205 265.578,113.700 265.482 C 114.195 265.387,113.790 265.309,112.800 265.309 C 111.810 265.309,111.405 265.387,111.900 265.482 M121.800 265.586 C 118.060 265.704,115.810 265.895,116.800 266.010 C 118.014 266.150,116.740 266.329,112.886 266.561 C 108.003 266.854,107.116 267.009,106.786 267.626 C 106.324 268.490,106.322 272.672,106.784 273.800 C 106.970 274.255,107.021 273.197,106.901 271.343 C 106.700 268.222,106.731 268.064,107.646 267.561 C 108.762 266.946,129.675 266.771,134.883 267.333 L 137.967 267.665 138.803 269.900 C 140.026 273.169,139.789 275.371,138.200 275.491 C 137.213 275.566,137.142 275.520,137.800 275.237 C 138.524 274.924,138.486 274.865,137.400 274.612 C 136.740 274.458,135.120 274.000,133.800 273.593 C 129.931 272.400,129.732 272.356,131.142 273.012 C 132.229 273.518,132.439 273.804,132.247 274.518 C 132.117 275.003,132.008 276.525,132.005 277.900 C 132.000 280.384,131.993 280.400,130.854 280.400 L 129.708 280.400 129.302 276.762 C 128.804 272.304,128.395 271.755,126.043 272.388 C 124.984 272.674,124.477 273.001,124.654 273.287 C 124.834 273.578,124.702 273.648,124.278 273.485 C 123.368 273.136,118.330 274.763,118.661 275.299 C 118.823 275.561,118.731 275.605,118.420 275.413 C 117.718 274.978,111.879 276.863,112.513 277.319 C 112.825 277.544,112.671 277.597,112.083 277.468 C 111.578 277.357,110.651 277.413,110.023 277.593 C 109.298 277.801,108.720 277.760,108.440 277.480 C 108.120 277.160,108.000 277.164,108.000 277.496 C 108.000 277.747,108.203 278.078,108.451 278.231 C 108.865 278.487,106.835 279.600,105.954 279.600 C 105.759 279.600,105.600 278.276,105.600 276.659 C 105.600 269.073,105.112 267.883,102.994 270.300 C 102.271 271.125,101.124 272.430,100.446 273.200 C 99.225 274.587,99.213 274.643,99.206 279.126 L 99.200 283.652 100.459 284.726 C 102.470 286.442,103.173 286.613,101.294 284.929 L 99.588 283.400 99.609 279.000 L 99.630 274.600 101.993 272.012 C 104.879 268.851,104.791 268.767,105.084 274.970 C 105.347 280.543,105.374 280.610,106.974 279.780 C 107.589 279.461,108.420 279.200,108.822 279.200 C 109.224 279.200,109.651 279.040,109.772 278.845 C 109.893 278.650,110.645 278.368,111.445 278.218 C 112.244 278.068,113.191 277.793,113.549 277.606 C 113.907 277.419,115.280 276.969,116.600 276.606 C 117.920 276.243,119.413 275.778,119.919 275.573 C 122.343 274.589,122.401 274.703,122.394 280.500 C 122.387 286.852,122.606 286.436,118.400 288.060 C 115.738 289.087,108.190 288.758,105.615 287.502 C 103.332 286.388,102.523 286.271,104.088 287.281 C 109.652 290.874,120.519 289.520,126.403 284.500 C 128.799 282.456,130.243 282.708,128.188 284.812 C 125.194 287.878,118.227 290.400,112.749 290.400 C 109.550 290.400,109.194 290.893,111.900 291.575 C 112.945 291.838,114.340 292.288,115.000 292.574 C 117.906 293.836,118.618 294.012,121.816 294.258 C 123.677 294.401,125.200 294.694,125.200 294.909 C 125.200 295.383,119.496 295.032,116.600 294.380 C 113.295 293.636,111.429 293.681,111.349 294.508 C 111.295 295.076,111.320 295.088,111.478 294.568 C 111.698 293.841,111.757 293.847,118.300 295.237 C 120.555 295.717,122.400 296.289,122.400 296.510 C 122.400 296.974,116.467 296.542,115.811 296.030 C 115.341 295.663,112.000 295.093,112.000 295.380 C 112.000 295.607,114.512 296.334,117.800 297.058 L 120.200 297.586 117.000 297.406 C 115.240 297.307,112.799 297.109,111.577 296.965 C 108.476 296.601,106.854 297.888,109.432 298.666 L 111.000 299.139 109.500 299.169 C 107.633 299.208,107.608 299.660,109.400 301.027 C 110.309 301.721,110.800 302.429,110.800 303.047 C 110.800 303.571,111.025 304.006,111.300 304.014 C 111.575 304.022,111.413 304.247,110.941 304.514 C 110.213 304.926,110.167 305.079,110.641 305.516 C 110.948 305.799,111.200 306.410,111.200 306.872 C 111.200 308.537,112.190 308.776,119.000 308.752 C 127.308 308.724,132.491 308.327,132.699 307.703 C 132.969 306.892,132.653 306.604,131.400 306.516 C 130.740 306.469,128.130 306.257,125.600 306.043 C 123.070 305.830,119.335 305.643,117.300 305.628 C 115.119 305.611,113.600 305.436,113.600 305.200 C 113.600 304.980,114.140 304.800,114.800 304.800 C 116.285 304.800,116.461 303.568,115.111 302.623 L 114.222 302.000 115.211 301.980 C 115.755 301.969,118.675 301.978,121.700 301.999 C 127.914 302.043,128.788 301.584,123.900 300.846 C 122.085 300.571,119.736 300.179,118.680 299.974 C 117.624 299.768,116.049 299.600,115.180 299.600 C 114.311 299.600,113.600 299.433,113.600 299.229 C 113.600 298.878,117.248 299.020,119.000 299.440 C 119.440 299.545,120.700 299.726,121.800 299.841 C 122.900 299.957,125.313 300.321,127.161 300.650 C 129.265 301.025,130.612 301.105,130.761 300.864 C 130.893 300.652,131.855 300.350,132.900 300.194 C 135.315 299.832,135.951 297.200,133.624 297.200 C 132.977 297.200,132.336 297.020,132.200 296.800 C 132.064 296.580,131.468 296.394,130.876 296.387 C 129.844 296.375,129.831 296.351,130.576 295.787 C 131.004 295.464,131.679 295.200,132.076 295.200 C 132.546 295.200,132.800 294.904,132.800 294.357 C 132.800 293.775,132.616 293.585,132.205 293.743 C 129.724 294.695,127.807 294.463,126.900 293.101 C 125.737 291.356,125.719 291.411,127.671 290.826 C 131.034 289.819,134.604 287.346,136.770 284.524 C 138.037 282.874,139.365 282.294,139.683 283.250 C 139.780 283.540,140.290 283.600,141.117 283.418 C 143.555 282.883,142.638 276.400,140.125 276.400 C 139.478 276.400,139.449 275.911,140.059 275.301 C 140.600 274.760,139.493 269.619,138.514 268.124 C 137.817 267.062,137.112 266.927,130.200 266.534 L 125.000 266.238 128.600 265.772 C 132.478 265.269,132.111 265.259,121.800 265.586 M107.228 275.476 C 107.213 275.958,107.380 276.464,107.600 276.600 C 108.073 276.892,108.073 276.501,107.600 275.400 C 107.269 274.629,107.255 274.631,107.228 275.476 M137.600 281.608 C 137.600 282.507,131.708 287.868,129.547 288.935 C 125.961 290.706,120.800 291.832,120.800 290.843 C 120.800 290.406,121.790 290.000,122.858 290.000 C 125.948 290.000,131.617 286.428,133.774 283.122 C 134.953 281.315,137.600 280.268,137.600 281.608 M140.839 289.163 C 139.514 290.249,139.410 291.200,140.614 291.200 C 141.327 291.200,142.511 289.439,142.333 288.643 C 142.230 288.181,141.893 288.298,140.839 289.163 M120.000 291.000 C 120.000 291.844,120.187 292.000,121.200 292.000 C 122.133 292.000,122.400 292.178,122.400 292.800 C 122.400 294.089,116.231 293.345,115.370 291.952 C 115.251 291.758,114.724 291.600,114.200 291.600 C 113.676 291.600,113.136 291.420,113.000 291.200 C 112.847 290.952,113.636 290.789,115.076 290.772 C 116.354 290.756,117.760 290.589,118.200 290.400 C 119.561 289.815,120.000 289.962,120.000 291.000 M304.100 291.398 C 303.825 291.711,303.600 292.139,303.600 292.350 C 303.600 292.561,303.825 292.809,304.100 292.902 C 304.482 293.030,304.490 293.204,304.137 293.635 C 303.190 294.792,303.299 297.386,304.301 297.528 C 305.214 297.658,306.400 296.811,306.400 296.029 C 306.400 295.793,306.729 295.600,307.132 295.600 C 307.633 295.600,307.854 295.883,307.832 296.500 C 307.787 297.771,309.954 298.063,310.276 296.829 C 310.549 295.789,310.871 295.781,311.507 296.800 C 312.063 297.690,313.432 297.876,313.717 297.100 C 313.863 296.700,314.006 296.700,314.430 297.100 C 314.722 297.375,315.579 297.600,316.336 297.600 L 317.711 297.600 317.459 295.500 C 317.320 294.345,317.205 292.815,317.203 292.100 C 317.199 290.470,315.212 290.203,313.947 291.661 L 313.200 292.522 313.200 291.661 C 313.200 290.955,312.964 290.800,311.894 290.800 C 310.650 290.800,309.200 292.738,309.200 294.403 C 309.200 294.621,309.020 294.800,308.800 294.800 C 308.580 294.800,308.400 294.530,308.400 294.200 C 308.400 293.870,308.130 293.600,307.800 293.600 C 307.470 293.600,307.200 293.420,307.200 293.200 C 307.200 292.980,307.470 292.800,307.800 292.800 C 308.173 292.800,308.400 292.422,308.400 291.800 C 308.400 290.621,305.059 290.309,304.100 291.398 M287.008 292.250 C 286.220 293.037,286.230 294.573,287.029 295.371 C 287.374 295.717,287.464 296.000,287.229 296.000 C 286.993 296.000,286.800 296.360,286.800 296.800 C 286.800 297.912,289.039 297.908,290.005 296.794 C 290.674 296.023,290.712 296.021,290.898 296.733 C 291.133 297.631,294.309 298.073,297.900 297.709 C 300.884 297.405,301.600 296.633,301.600 293.717 L 301.600 291.556 299.714 291.678 C 297.952 291.792,297.812 291.883,297.571 293.072 C 297.133 295.230,294.800 296.684,294.800 294.800 C 294.800 294.360,294.980 294.000,295.200 294.000 C 295.912 294.000,295.642 292.066,294.900 291.852 C 293.213 291.364,287.611 291.646,287.008 292.250 M115.800 297.842 C 117.340 297.974,118.755 298.227,118.945 298.406 C 119.135 298.584,117.812 298.629,116.004 298.505 C 112.930 298.295,112.728 298.329,112.862 299.040 C 112.971 299.611,113.403 299.827,114.603 299.911 C 115.481 299.972,116.560 300.191,117.000 300.399 C 117.440 300.606,118.430 300.842,119.200 300.924 C 119.970 301.005,119.025 301.101,117.100 301.136 C 113.473 301.202,112.987 301.483,114.400 302.693 C 115.475 303.614,115.408 303.923,114.100 304.073 C 113.309 304.164,113.000 304.425,113.000 305.000 C 113.000 305.737,113.340 305.817,117.300 306.020 C 121.061 306.212,123.006 306.727,122.370 307.363 C 122.274 307.460,120.088 307.691,117.514 307.876 C 112.020 308.272,111.485 308.077,111.639 305.733 C 111.867 302.268,111.689 301.680,110.200 300.973 C 108.385 300.112,108.411 299.587,110.254 299.886 C 111.996 300.169,112.006 299.324,110.270 298.478 C 108.551 297.640,108.960 297.089,111.100 297.362 C 112.145 297.495,114.260 297.711,115.800 297.842 M117.600 303.782 C 117.600 304.686,118.856 304.806,125.000 304.489 C 132.763 304.088,132.268 303.428,124.100 303.290 C 118.529 303.196,117.600 303.266,117.600 303.782 M319.413 330.613 C 318.636 331.391,318.001 332.336,318.001 332.713 C 318.002 333.166,318.264 332.972,318.767 332.147 C 320.079 329.996,321.045 329.541,322.626 330.331 L 323.963 331.000 322.781 332.120 C 320.782 334.017,321.439 334.659,323.853 333.167 C 325.195 332.338,325.741 332.653,324.600 333.600 C 323.712 334.337,323.838 335.600,324.800 335.600 C 325.240 335.600,325.600 335.806,325.600 336.057 C 325.600 337.320,318.930 335.581,317.990 334.073 C 317.618 333.476,317.584 333.490,317.690 334.199 C 318.116 337.035,329.888 338.793,330.434 336.102 C 330.579 335.389,330.921 334.536,331.194 334.207 C 331.848 333.420,330.882 333.011,328.351 333.005 C 327.114 333.002,326.561 332.846,326.680 332.536 C 326.949 331.835,325.354 331.492,324.315 332.027 C 323.559 332.416,323.487 332.406,323.900 331.969 C 324.650 331.175,324.524 330.864,323.100 329.996 C 321.347 328.927,321.050 328.976,319.413 330.613 M334.206 335.528 C 333.850 335.884,337.199 336.787,338.900 336.794 C 339.725 336.797,340.400 336.620,340.400 336.400 C 340.400 336.180,339.725 335.996,338.900 335.990 C 338.075 335.985,336.734 335.826,335.920 335.637 C 335.106 335.448,334.335 335.399,334.206 335.528 " stroke="none" fill="#5f5f60" fill-rule="evenodd"></path></g></svg>